HIERARCHY
ROOT Hips
{
	OFFSET -0.179506 -22.333345 2.821913
	CHANNELS 6 Xposition Yposition Zposition Zrotation Yrotation Xrotation 
	JOINT LeftUpLeg
	{
		OFFSET 6.951974 -9.140623 -0.681533
		CHANNELS 3 Zrotation Yrotation Xrotation
		JOINT LeftLeg
		{
			OFFSET 3.427654 -37.519855 -0.449580
			CHANNELS 3 Zrotation Yrotation Xrotation
			JOINT LeftFoot
			{
				OFFSET -1.359570 -39.796059 -4.369333
				CHANNELS 3 Zrotation Yrotation Xrotation
				JOINT LeftToe
				{
					OFFSET 2.635814 -5.579078 11.928840
					CHANNELS 3 Zrotation Yrotation Xrotation
					End Site
					{
						OFFSET 0.000000 0.000000 0.000000
					}
				}
			}
		}
	}
	JOINT RightUpLeg
	{
		OFFSET -6.767048 -9.052170 -0.431982
		CHANNELS 3 Zrotation Yrotation Xrotation
		JOINT RightLeg
		{
			OFFSET -3.829005 -38.256897 -0.885003
			CHANNELS 3 Zrotation Yrotation Xrotation
			JOINT RightFoot
			{
				OFFSET 1.577377 -39.841461 -4.231180
				CHANNELS 3 Zrotation Yrotation Xrotation
				JOINT RightToe
				{
					OFFSET -2.537174 -4.814398 12.334795
					CHANNELS 3 Zrotation Yrotation Xrotation
					End Site
					{
						OFFSET 0.000000 0.000000 0.000000
					}
				}
			}
		}
	}
	JOINT Spine
	{
		OFFSET -0.253288 10.896323 -2.669631
		CHANNELS 3 Zrotation Yrotation Xrotation
		JOINT Spine1
		{
			OFFSET 0.548704 13.518043 0.109247
			CHANNELS 3 Zrotation Yrotation Xrotation
			JOINT Spine2
			{
				OFFSET 0.145701 5.292222 2.542457
				CHANNELS 3 Zrotation Yrotation Xrotation
				JOINT Neck
				{
					OFFSET -0.277840 21.387037 -4.285703
					CHANNELS 3 Zrotation Yrotation Xrotation
					JOINT Head
					{
						OFFSET 0.515184 6.496960 5.134897
						CHANNELS 3 Zrotation Yrotation Xrotation
						End Site
						{
							OFFSET 0.000000 0.000000 0.000000
						}
					}
				}
				JOINT LeftShoulder
				{
					OFFSET 7.884473 12.174932 -3.408961
					CHANNELS 3 Zrotation Yrotation Xrotation
					JOINT LeftArm
					{
						OFFSET 9.097692 3.046888 -0.886815
						CHANNELS 3 Zrotation Yrotation Xrotation
						JOINT LeftForeArm
						{
							OFFSET 25.961220 -1.277207 -2.745643
							CHANNELS 3 Zrotation Yrotation Xrotation
							JOINT LeftHand
							{
								OFFSET 24.923361 0.898606 -0.117091
								CHANNELS 3 Zrotation Yrotation Xrotation
								End Site
								{
									OFFSET 0.000000 0.000000 0.000000
								}
							}
						}
					}
				}
				JOINT RightShoulder
				{
					OFFSET -8.175920 11.883285 -3.861528
					CHANNELS 3 Zrotation Yrotation Xrotation
					JOINT RightArm
					{
						OFFSET -9.601238 3.255117 -0.914307
						CHANNELS 3 Zrotation Yrotation Xrotation
						JOINT RightForeArm
						{
							OFFSET -25.374195 -1.332924 -2.140099
							CHANNELS 3 Zrotation Yrotation Xrotation
							JOINT RightHand
							{
								OFFSET -25.529810 0.777228 -0.555919
								CHANNELS 3 Zrotation Yrotation Xrotation
								End Site
								{
									OFFSET 0.000000 0.000000 0.000000
								}
							}
						}
					}
				}
			}
		}
	}
}
MOTION
Frames: 13
Frame Time: 0.033333
-27.086086 48.843197 99.387268 -72.408598 -0.842377 81.611918 -0.434568 -1.852641 8.608236 -1.929712 -7.976899 -1.085480 2.604175 5.703199 -3.994951 nan nan nan -1.433290 -1.858727 5.622625 3.468265 -1.677447 2.111474 5.907482 -0.804967 1.108221 nan nan nan -0.489634 3.771413 1.960620 0.332482 -2.217131 12.906096 0.526928 0.410963 -2.855067 -3.351070 22.912512 6.496227 1.149859 14.176803 -10.410496 -27.011354 -4.397363 -0.730303 -54.958809 -11.003152 9.408918 13.755684 -31.356880 -7.219725 -6.730640 -20.256971 -0.791503 30.924808 6.167344 5.781087 57.988254 4.642363 8.154896 -20.135901 16.913837 -20.996738 6.552220 12.498356 -7.385734 
-27.217762 48.774612 99.369141 -72.501149 -0.853803 81.704646 -0.449080 -1.945535 8.570860 -2.020647 -7.856231 -0.989099 2.639981 5.802720 -4.114931 nan nan nan -1.394664 -1.782750 5.741165 3.416752 -1.587332 1.842131 5.905150 -0.888196 1.118990 nan nan nan -0.519025 3.760422 1.931161 0.394983 -2.258209 12.726997 0.605075 0.446536 -2.808718 -3.274717 22.935266 6.134192 1.105470 14.408396 -10.482707 -27.211692 -4.175892 -0.686744 -55.186862 -10.611737 9.369494 13.628993 -31.136768 -7.139075 -6.767000 -20.177518 -1.011052 30.917941 6.210249 5.693000 57.833765 4.806403 8.189900 -20.167164 17.208820 -21.110780 6.404958 12.671088 -7.480923 
-27.325861 48.715511 99.351517 -72.581476 -0.813857 81.862796 -0.409557 -2.030892 8.454289 -2.089889 -7.767035 -0.916328 2.618264 5.975744 -4.157009 nan nan nan -1.309020 -1.766911 5.712705 3.360994 -1.511716 1.685795 5.852852 -0.981384 1.148736 nan nan nan -0.535878 3.683061 1.924343 0.466471 -2.309969 12.445477 0.723421 0.516289 -2.755453 -3.304195 22.929405 5.870319 1.073492 14.744787 -10.715502 -27.383122 -3.872137 -0.728245 -55.424229 -10.213552 9.403562 13.466695 -30.796534 -6.778854 -6.936203 -20.236455 -1.084033 30.837337 6.294476 5.620604 57.710150 4.912845 8.246521 -20.139850 17.553679 -21.202813 6.346642 13.173748 -7.676517 
-27.463959 48.630390 99.342873 -72.494165 -0.761081 82.006451 -0.366063 -1.952412 8.395313 -2.074370 -7.878573 -0.937514 2.569308 5.936109 -4.176643 nan nan nan -1.251883 -1.831127 5.773979 3.329092 -1.508488 1.485724 5.835050 -1.036476 1.135273 nan nan nan -0.483745 3.530191 1.752551 0.510274 -2.405916 12.418368 0.731607 0.521729 -2.774745 -3.268776 23.099093 5.714112 1.073841 15.034103 -11.159824 -27.524674 -3.614413 -0.735967 -55.582743 -9.812075 9.396022 13.249601 -30.475361 -6.496970 -7.303119 -20.209857 -1.021084 30.894251 6.314842 5.459757 57.512066 5.031287 8.262906 -20.094646 17.919809 -21.244059 6.436543 13.390613 -7.727208 
-27.622789 48.504910 99.330231 -72.302559 -0.725466 82.054560 -0.368847 -1.817210 8.449165 -2.006339 -8.072226 -0.971543 2.541921 5.767312 -4.229566 nan nan nan -1.301160 -1.904077 6.072384 3.403684 -1.540463 1.100292 5.833844 -1.128013 1.127461 nan nan nan -0.393588 3.404837 1.566749 0.517219 -2.487984 12.428944 0.744381 0.428739 -2.686362 -3.104843 23.262117 5.442625 1.011490 15.151929 -11.373288 -27.722123 -3.448685 -0.595390 -55.690013 -9.522589 9.254766 13.064869 -30.125854 -6.254776 -7.518840 -20.069095 -1.081685 30.926133 6.265110 5.361452 57.296977 5.169500 8.297432 -20.135669 18.590455 -21.253065 6.376958 13.241831 -7.922548 
-27.753990 48.396461 99.316566 -72.199351 -0.720920 82.065393 -0.401501 -1.636392 8.500852 -1.950036 -8.274464 -0.944057 2.563128 5.666058 -4.293335 nan nan nan -1.378304 -1.954653 6.340499 3.454791 -1.541506 0.834044 5.858054 -1.157487 1.083008 nan nan nan -0.326677 3.319683 1.601581 0.518854 -2.507646 12.223402 0.822034 0.328709 -2.605455 -3.003229 23.209849 5.059198 0.927702 15.417821 -11.280451 -27.945806 -3.341751 -0.403389 -55.775954 -9.190246 9.161980 12.840200 -29.619935 -6.054024 -7.064897 -19.810808 -1.526557 30.887075 6.224836 5.278450 57.192189 5.273787 8.369847 -20.166373 19.160968 -21.407324 5.944722 13.262169 -8.412793 
-27.880615 48.334774 99.296082 -72.204374 -0.679109 82.134845 -0.300645 -1.531602 8.547293 -2.039282 -8.360417 -0.984831 2.533275 5.685455 -4.375499 nan nan nan -1.326063 -1.801774 6.500067 3.453416 -1.620798 0.611468 5.907122 -1.209156 1.056553 nan nan nan -0.256968 3.320556 1.604325 0.503071 -2.507166 11.990454 0.908539 0.230015 -2.497696 -2.862753 23.245612 4.733082 0.882792 15.686328 -11.397642 -28.048393 -3.171887 -0.367322 -55.967922 -8.864010 9.129773 12.577786 -28.936343 -5.611192 -6.786514 -19.797068 -1.746571 30.909187 6.149667 5.132783 57.082021 5.393339 8.382759 -20.167096 19.606350 -21.473760 5.539088 13.774747 -8.675451 
-28.038223 48.275013 99.275925 -72.341443 -0.646516 82.212288 -0.220885 -1.643146 8.720372 -2.124784 -8.259596 -1.168992 2.494042 5.816736 -4.436146 nan nan nan -1.286551 -1.620636 6.655489 3.467123 -1.554520 0.378297 5.929842 -1.302027 1.041728 nan nan nan -0.140719 3.427374 1.501098 0.457921 -2.501850 11.932619 0.941325 0.174786 -2.447888 -2.763373 23.361066 4.469951 0.893525 15.861534 -11.741817 -28.098436 -2.985519 -0.453520 -56.143257 -8.537965 9.157144 12.171205 -28.199573 -5.004675 -7.036757 -19.841819 -1.770451 30.980346 6.023432 4.994301 56.944253 5.527795 8.382386 -20.220996 20.183586 -21.547908 5.415883 14.144075 -8.771811 
-28.269125 48.192451 99.269630 -72.561933 -0.726928 82.055131 -0.350395 -2.156266 9.384573 -2.177405 -7.898034 -1.652709 2.534828 6.106370 -4.372363 nan nan nan -1.468016 -1.759128 7.164381 3.530610 -1.145076 0.034307 6.029514 -1.329297 1.057965 nan nan nan -0.135709 3.654359 1.532535 0.397217 -2.528312 11.856120 1.037362 0.130310 -2.267323 -2.714423 23.502871 4.200283 0.922922 16.025038 -11.978786 -28.138675 -2.885687 -0.429297 -56.351467 -8.233083 8.975507 11.732249 -27.472402 -4.568170 -7.355860 -19.880475 -2.066083 30.963576 5.925336 4.982853 56.883028 5.756055 8.408167 -20.344027 20.771359 -21.656724 5.524957 14.338318 -8.996480 
-28.441292 48.131191 99.252953 -72.505678 -0.768257 82.031796 -0.389569 -2.160875 9.683597 -2.169647 -7.892122 -1.914442 2.547618 5.995115 -4.358019 nan nan nan -1.613127 -2.182357 7.469394 3.548370 -0.831835 -0.227784 6.009345 -1.309514 1.100426 nan nan nan -0.270443 3.687990 1.457949 0.536288 -2.618434 11.770366 1.101902 0.099395 -2.124863 -2.632081 23.639085 4.016647 0.838229 16.108186 -12.212231 -28.261178 -2.861773 -0.463394 -56.553680 -7.835018 8.909186 11.585396 -26.675324 -4.326936 -7.761424 -19.380184 -1.908239 31.023081 5.777494 4.786567 56.670086 5.899281 8.409276 -20.714214 21.363584 -21.313969 6.780128 13.961711 -8.187879 
-28.558285 48.073795 99.241455 -72.435052 -0.799773 82.121889 -0.385008 -1.858976 9.721250 -2.138750 -8.022925 -2.027492 2.472416 5.769470 -4.417738 nan nan nan -1.700557 -2.455327 7.585846 3.517971 -0.720752 -0.431151 6.017242 -1.196472 1.109109 nan nan nan -0.350830 3.673799 1.308222 0.644823 -2.654622 11.740765 1.121276 0.117496 -2.091964 -2.496818 23.731107 3.898627 0.776289 16.202699 -12.389079 -28.481348 -2.900354 -0.526455 -56.639393 -7.528690 8.896789 11.540979 -25.536858 -4.304646 -8.085014 -19.081243 -1.450957 30.998800 5.657216 4.550552 56.599580 5.915457 8.414258 -20.963291 21.579096 -21.010636 7.771816 13.862926 -7.331464 
-28.671751 48.004414 99.219215 -72.373504 -0.815961 82.222477 -0.400311 -1.704986 9.703441 -2.114750 -8.065799 -2.049164 2.540932 5.581386 -4.501766 nan nan nan -1.745846 -2.509451 7.622116 3.484881 -0.751699 -0.534276 6.132693 -1.124509 1.128049 nan nan nan -0.389442 3.689105 1.076090 0.755098 -2.744977 11.886577 1.109027 0.135940 -2.157087 -2.305296 23.885058 3.767275 0.678883 16.170735 -12.441747 -28.627191 -2.906070 -0.588532 -56.804613 -7.307019 8.838402 11.439041 -24.371844 -4.426795 -8.542762 -18.478591 -0.791372 30.948222 5.580131 4.434755 56.582211 5.984671 8.373894 -21.393869 21.691761 -20.831602 9.038051 13.450723 -6.237493 
-28.764242 47.927170 99.198898 -72.259604 -0.783355 82.334153 -0.372780 -1.544821 9.643099 -2.104067 -8.172635 -2.051935 2.503853 5.502946 -4.531224 nan nan nan -1.730124 -2.328494 7.582666 3.517244 -0.844824 -0.533544 6.195521 -1.295884 1.046741 nan nan nan -0.352856 3.618107 0.840503 0.827519 -2.816758 12.020464 1.120044 0.141994 -2.215287 -2.198439 23.930162 3.605744 0.574508 16.255269 -12.379388 -28.710187 -2.984328 -0.478469 -56.983465 -7.056878 8.979856 11.162836 -23.398588 -4.279994 -8.269031 -17.638879 -0.808252 30.925326 5.616641 4.474524 56.545425 6.093723 8.438158 -21.481073 22.115154 -21.194744 8.571251 13.098526 -6.708998 
